<?xml version="1.0" encoding="utf-8"?>
<svg viewBox="201.179 238.264 130.174 119.914" xmlns="http://www.w3.org/2000/svg">
  <defs>
    <clipPath id="clip-1">
      <path d="M 185.387 260.8 L 335.332 260.8 L 335.332 62.782 L 185.387 62.782 Z" style="fill: none; clip-rule: nonzero;"/>
    </clipPath>
    <clipPath id="clip-2">
      <path d="M 167.096 307.788 L 366.647 307.788 L 366.647 -21.209 L 167.096 -21.209 Z" style="fill: none; clip-rule: nonzero;"/>
    </clipPath>
    <clipPath id="clip-3">
      <path d="M 166.974 320.15 L 366.529 320.15 L 366.529 -8.84 L 166.974 -8.84 Z" style="fill: none; clip-rule: nonzero;"/>
    </clipPath>
  </defs>
  <g transform="matrix(1.000001, 0, 0, 1.000001, -0.531236, 20.722057)">
    <path d="M 222.866 238.808 C 222.939 238.944 233.789 230.763 234.32 231.743 C 234.442 231.97 218.866 239.863 219.524 241.078 C 219.715 241.434 235.56 228.78 236.535 230.584 C 237.376 232.141 215.724 242.751 216.111 243.465 C 216.876 244.883 238.009 228.867 238.452 229.684 C 239.109 230.904 212.666 244.12 213.373 245.43 C 214.184 246.931 238.793 227.298 239.787 229.139 C 241.274 231.892 212.012 245.107 212.532 246.071 C 213.208 247.322 238.933 226.495 240.267 228.965 C 241.328 230.929 211.451 243.202 213.004 246.071 C 214.59 249.01 240.754 227.781 241.228 228.663 C 241.526 229.215 212.546 244.652 213.314 246.071 C 214.26 247.825 241.059 227.258 241.748 228.534 C 242.752 230.393 212.252 243.371 213.713 246.071 C 214.019 246.642 240.895 225.801 242.316 228.428 C 242.52 228.807 213.03 244.075 214.108 246.071 C 214.83 247.407 242.61 228.043 242.792 228.381 C 243.531 229.747 213.642 244.595 214.441 246.072 C 214.971 247.055 241.614 225.568 243.131 228.376 C 243.532 229.118 213.495 243.443 214.914 246.072 C 215.234 246.665 242.445 226.349 243.555 228.406 C 244.72 230.559 214.577 245.006 215.154 246.072 C 215.334 246.409 243.392 227.764 243.753 228.433 C 244.551 229.909 215.223 245.325 215.626 246.072 C 215.995 246.756 242.499 225.498 244.12 228.497 C 244.303 228.835 214.35 243.082 215.967 246.072 C 216.278 246.65 243.079 226.162 244.372 228.552 C 245.354 230.375 214.822 243.18 216.386 246.072 C 216.714 246.684 243.554 226.569 244.667 228.629 C 245.35 229.894 215.363 243.304 216.86 246.072 C 217.242 246.781 243.816 226.548 244.99 228.722 C 246.247 231.048 216.236 244.059 217.325 246.072 C 218.647 248.519 244.761 227.828 245.296 228.819 C 246.886 231.761 217.563 245.757 217.732 246.072 C 218.524 247.535 244.663 227.252 245.559 228.91 C 246.813 231.232 217.244 244.487 218.102 246.072 C 219.095 247.912 245.569 228.581 245.791 228.993 C 245.958 229.3 217.975 245.49 218.291 246.072 C 219.251 247.848 244.758 226.909 245.908 229.038 C 247.035 231.121 218.06 245.008 218.637 246.072 C 219.696 248.035 245.447 227.868 246.122 229.119 C 246.714 230.216 217.913 244.358 218.841 246.072 C 220.33 248.831 245.051 226.959 246.244 229.169 C 247.797 232.041 217.818 243.487 219.215 246.072 C 220.218 247.929 245.594 227.635 246.472 229.261 C 247.925 231.949 218.478 244.049 219.572 246.072 C 220.861 248.456 246.014 228.11 246.683 229.352 C 247.962 231.716 218.874 243.867 220.066 246.072 C 221.501 248.727 246.219 228.077 246.973 229.476 C 247.675 230.776 220.107 245.723 220.297 246.072 C 221.351 248.027 245.967 227.431 247.106 229.538 C 247.438 230.15 220.628 245.747 220.805 246.072 C 221.351 247.085 247.097 229.115 247.398 229.67 C 248.622 231.935 220.933 245.791 221.086 246.072 C 221.558 246.95 246.158 227.154 247.557 229.744 C 249.025 232.462 221.326 245.687 221.534 246.072 C 222.386 247.648 247.562 229.407 247.809 229.865 C 248.785 231.671 220.578 243.418 222.012 246.072 C 222.963 247.834 247.728 229.351 248.076 229.997 C 248.733 231.214 221.317 244.191 222.335 246.072 C 223.117 247.521 247.268 228.259 248.256 230.085 C 248.508 230.554 222.46 245.613 222.708 246.072 C 223.306 247.182 247.297 228.038 248.458 230.19 C 249.118 231.412 221.849 243.867 223.042 246.072 C 223.937 247.733 247.415 228.012 248.641 230.283 C 249.778 232.386 222.361 243.929 223.52 246.072 C 224.273 247.468 248.489 229.658 248.899 230.417 C 250.161 232.751 223.514 245.147 224.015 246.072 C 224.482 246.938 247.822 228.072 249.167 230.557 C 249.502 231.178 223.816 245.189 224.293 246.072 C 224.465 246.392 248.561 229.245 249.314 230.639 C 250.514 232.859 223.211 243.446 224.632 246.072 C 225.033 246.817 248.223 228.383 249.494 230.738 C 250.706 232.979 224.136 244.378 225.054 246.072 C 226.376 248.519 248.681 228.942 249.719 230.859 C 249.897 231.192 224.25 243.914 225.418 246.072 C 225.652 246.51 248.707 228.742 249.908 230.966 C 250.701 232.438 225.239 244.968 225.836 246.072 C 226.07 246.508 248.993 228.99 250.128 231.089 C 250.501 231.781 225.364 244.468 226.231 246.072 C 227.242 247.941 249.477 229.624 250.332 231.207 C 251.474 233.321 226.313 245.788 226.466 246.072 C 227.285 247.586 250.312 231.015 250.453 231.277 C 250.781 231.884 225.9 244.136 226.948 246.072 C 227.791 247.631 249.757 229.671 250.703 231.421 C 250.992 231.956 226.133 243.85 227.334 246.072 C 228.191 247.661 250.609 230.996 250.902 231.537 C 251.891 233.369 227.213 245.402 227.577 246.072 C 228.852 248.433 250.74 231.082 251.024 231.612 C 251.522 232.529 227.28 245.004 227.858 246.072 C 229.116 248.4 250.567 230.58 251.168 231.696 C 252.034 233.297 227.876 245.562 228.155 246.072 C 229.076 247.778 250.341 229.972 251.32 231.785 C 251.654 232.404 227.596 244.306 228.551 246.072 C 229.442 247.726 251.307 231.51 251.522 231.906 C 251.71 232.255 228.791 245.535 229.082 246.072 C 229.973 247.72 251.496 231.526 251.79 232.069 C 252.085 232.619 229.059 245.617 229.305 246.072 C 230.604 248.476 251.388 231.186 251.901 232.136 C 252.399 233.058 229.424 245.56 229.703 246.072 C 230.048 246.712 251.917 231.918 252.102 232.257 C 252.4 232.813 229.526 245.06 230.074 246.072 C 231.328 248.397 252.091 232.014 252.285 232.373 C 253.141 233.956 229.987 245.204 230.456 246.072 C 230.859 246.817 251.695 231.043 252.476 232.492 C 253.414 234.226 230.36 245.044 230.918 246.072 C 231.097 246.406 251.856 231.06 252.706 232.636 C 252.93 233.047 230.378 244.721 231.109 246.072 C 232.114 247.935 251.656 230.576 252.8 232.694 C 253.906 234.74 231.034 245.496 231.345 246.072 C 231.544 246.44 251.721 230.556 252.917 232.768 C 253.569 233.971 230.946 244.357 231.876 246.072 C 232.844 247.869 252.56 231.79 253.179 232.933 C 254.273 234.96 231.718 244.918 232.342 246.072 C 233.084 247.446 252.344 231.112 253.409 233.08 C 253.667 233.559 231.786 244.242 232.777 246.073 C 233.92 248.191 252.715 231.542 253.621 233.219 C 254.743 235.296 232.112 243.953 233.258 246.073 C 233.557 246.627 253.1 231.973 253.855 233.369 C 254.68 234.894 232.87 244.561 233.688 246.073 C 234.6 247.761 253.875 233.151 254.065 233.505 C 254.806 234.875 233.559 245.341 233.954 246.073 C 234.403 246.903 253.28 231.896 254.194 233.591 C 254.882 234.862 234.116 245.638 234.353 246.073 C 234.635 246.597 253.73 232.502 254.386 233.717 C 255.019 234.888 234.237 245.397 234.602 246.073 C 235.578 247.88 253.375 231.703 254.507 233.796 C 254.702 234.156 233.92 244.139 234.967 246.073 C 235.554 247.161 254.483 233.54 254.684 233.913 C 255.584 235.579 234.878 244.996 235.464 246.073 C 236.351 247.715 254.39 233.089 254.922 234.072 C 255.132 234.459 235.409 245.626 235.652 246.073 C 235.894 246.522 254.452 233.099 255.012 234.132 C 255.916 235.806 235.814 245.459 236.147 246.073 C 236.78 247.248 254.791 233.443 255.249 234.293 C 255.567 234.88 236.049 245.537 236.339 246.073 C 236.861 247.042 255.113 233.932 255.34 234.354 C 256.345 236.211 235.894 244.714 236.63 246.073 C 237.12 246.982 254.636 232.886 255.479 234.447 C 256.469 236.279 236.001 244.536 236.832 246.073 C 237.715 247.709 255.285 233.974 255.577 234.512 C 256.044 235.377 236.571 245.011 237.145 246.073 C 237.941 247.546 254.989 233.249 255.726 234.613 C 256.614 236.258 236.963 245.292 237.386 246.073 C 238.043 247.291 255.465 233.996 255.841 234.692 C 256.471 235.861 236.868 244.704 237.608 246.073 C 238.502 247.725 254.952 232.926 255.945 234.766 C 256.607 235.989 237.446 244.811 238.129 246.073 C 238.516 246.789 255.919 234.428 256.193 234.934 C 256.514 235.528 237.683 244.264 238.662 246.073 C 238.874 246.469 255.691 233.712 256.444 235.106 C 256.787 235.739 238.92 245.693 239.127 246.073 C 239.321 246.434 256.26 234.51 256.664 235.257 C 257.04 235.953 239.291 245.772 239.454 246.073 C 239.983 247.052 256.236 234.289 256.817 235.365 C 257.304 236.262 238.963 244.601 239.76 246.073 C 240.353 247.171 256.725 235.029 256.961 235.465 C 257.165 235.841 239.539 244.726 240.267 246.073 C 240.843 247.14 256.558 234.446 257.199 235.631 C 257.469 236.13 240.155 245.164 240.646 246.073 C 240.875 246.495 256.595 234.309 257.377 235.755 C 258.117 237.123 240.641 245.27 241.075 246.073 C 241.642 247.122 256.719 234.306 257.577 235.896 C 258.401 237.42 241.342 245.833 241.472 246.073 C 242.024 247.095 257.581 235.692 257.762 236.027 C 258.677 237.72 241.29 245.037 241.85 246.073 C 242.694 247.64 257.294 234.96 257.937 236.151 C 258.468 237.133 241.457 244.776 242.158 246.073 C 242.677 247.034 257.383 234.961 258.081 236.255 C 258.573 237.164 241.975 245.371 242.355 246.073 C 242.527 246.389 257.649 235.352 258.172 236.319 C 258.452 236.835 242.098 245.055 242.651 246.073 C 242.802 246.351 258.089 236.005 258.31 236.415 C 259.109 237.895 242.32 245.078 242.859 246.073 C 243.637 247.517 258.131 235.976 258.406 236.484 C 258.731 237.084 242.843 245.624 243.086 246.073 C 243.652 247.118 257.91 235.446 258.512 236.559 C 259.346 238.101 242.614 244.77 243.319 246.073 C 243.438 246.295 258.474 236.369 258.619 236.636 C 259.394 238.071 243.472 245.428 243.822 246.073 C 243.963 246.334 258.432 236.03 258.851 236.804 C 259.258 237.559 243.36 244.828 244.033 246.073 C 244.723 247.352 258.798 236.596 258.949 236.875 C 259.313 237.549 243.662 244.675 244.419 246.073 C 244.933 247.028 258.309 235.491 259.127 237.002 C 259.328 237.377 244.696 245.642 244.929 246.073 C 245.586 247.292 258.834 236.196 259.36 237.173 C 259.847 238.071 244.551 244.839 245.218 246.073 C 245.365 246.344 259.219 236.761 259.494 237.269 C 260.21 238.592 245.402 245.564 245.678 246.073 C 246.021 246.71 259.282 236.643 259.704 237.423 C 260.247 238.426 245.737 245.483 246.057 246.073 C 246.262 246.454 259.239 236.368 259.878 237.549 C 260.094 237.949 246.357 245.843 246.482 246.073 C 246.764 246.598 259.499 236.63 260.073 237.692 C 260.246 238.013 246.456 245.362 246.841 246.073 C 247.075 246.509 260.072 237.509 260.236 237.812 C 260.509 238.317 246.522 245.108 247.045 246.073 C 247.515 246.943 260.028 237.322 260.33 237.88 C 260.835 238.817 247.252 245.519 247.552 246.073 C 247.663 246.279 260.269 237.513 260.561 238.051 C 260.782 238.461 247.741 245.572 248.011 246.073 C 248.429 246.845 260.438 237.593 260.769 238.206 C 261.441 239.45 247.981 245.051 248.534 246.073 C 248.654 246.298 260.649 237.719 261.006 238.381 C 261.316 238.957 248.831 245.851 248.952 246.073 C 249.247 246.625 260.977 238.118 261.195 238.522 C 261.31 238.735 248.498 244.868 249.148 246.073 C 249.811 247.298 260.864 237.81 261.285 238.589 C 261.407 238.815 249.323 245.487 249.641 246.073 C 250.118 246.954 260.84 237.519 261.508 238.757 C 261.711 239.133 249.34 244.851 250.001 246.073 C 250.579 247.144 261.275 238.147 261.67 238.878 C 262.264 239.977 250.259 245.768 250.423 246.073 C 250.96 247.069 261.674 238.676 261.86 239.02 C 262.192 239.637 250.585 245.807 250.728 246.074 C 251.24 247.023 261.498 238.198 261.998 239.125 C 262.297 239.679 250.583 245.196 251.057 246.074 C 251.302 246.527 262.047 239.055 262.145 239.236 C 262.411 239.731 251.058 245.468 251.386 246.074 C 251.64 246.545 262.118 239.024 262.294 239.347 C 262.378 239.506 251.24 245.147 251.742 246.074 C 252.339 247.179 262.371 239.318 262.453 239.469 C 262.673 239.877 251.82 245.489 252.137 246.074 C 252.72 247.155 262.505 239.368 262.629 239.603 C 263.19 240.639 251.947 245.043 252.505 246.074 C 252.686 246.408 262.234 238.689 262.795 239.729 C 263.058 240.216 252.29 245.15 252.789 246.074 C 253.358 247.128 262.42 238.893 262.921 239.824 C 263.294 240.513 252.572 245.078 253.111 246.074 C 253.366 246.549 262.822 239.484 263.065 239.933 C 263.499 240.737 253.067 245.294 253.489 246.074 C 254.01 247.039 262.879 239.403 263.235 240.064 C 263.419 240.406 253.373 245.317 253.781 246.074 C 254.001 246.48 263.151 239.766 263.364 240.163 C 263.482 240.377 253.576 245.308 253.991 246.074 C 254.241 246.539 262.957 239.306 263.458 240.235 C 263.802 240.87 253.76 245.23 254.216 246.074 C 254.39 246.396 263.492 240.187 263.558 240.313 C 263.859 240.866 254.332 245.927 254.413 246.074 C 254.944 247.06 263.278 239.696 263.646 240.379 C 263.95 240.941 254.547 245.737 254.731 246.074 C 255.251 247.04 263.364 239.706 263.787 240.487 C 264.234 241.313 254.914 245.49 255.231 246.074 C 255.282 246.169 263.78 240.232 264.009 240.661 C 264.389 241.362 255.386 245.613 255.635 246.074 C 255.792 246.365 264.136 240.697 264.19 240.798 C 264.568 241.497 255.434 245.189 255.914 246.074 C 255.963 246.168 264.11 240.517 264.314 240.895 C 264.568 241.364 255.745 245.259 256.187 246.074 C 256.287 246.261 263.992 240.169 264.434 240.988 C 264.759 241.589 256.106 245.276 256.538 246.074 C 256.929 246.798 264.48 240.905 264.59 241.11 C 265.02 241.904 256.607 245.534 256.899 246.074 C 257.045 246.343 264.52 240.807 264.749 241.232 C 265.097 241.875 257.296 245.793 257.448 246.074 C 257.692 246.528 264.739 240.954 264.992 241.423 C 265.091 241.602 257.649 245.723 257.84 246.074 C 257.89 246.168 264.943 241.146 265.166 241.556 C 265.277 241.765 257.889 245.451 258.226 246.074 C 258.324 246.256 264.942 240.963 265.334 241.691 C 265.672 242.31 258.473 245.562 258.751 246.074 C 259.032 246.597 265.508 241.763 265.566 241.871 C 265.73 242.175 258.963 245.893 259.062 246.074 C 259.44 246.775 265.592 241.775 265.703 241.978 C 265.972 242.476 259.204 245.467 259.533 246.074 C 259.788 246.549 265.716 241.783 265.91 242.142 C 266.038 242.378 259.638 245.531 259.934 246.074 C 260.093 246.371 265.781 241.719 266.086 242.28 C 266.312 242.7 260.116 245.834 260.247 246.074 C 260.537 246.612 266.058 242.083 266.224 242.39 C 266.349 242.622 260.645 245.931 260.722 246.074 C 260.77 246.168 266.312 242.336 266.431 242.553 C 266.74 243.127 260.666 245.57 260.94 246.074 C 261.071 246.318 266.276 242.169 266.526 242.629 C 266.624 242.811 261.369 245.871 261.48 246.074 C 261.604 246.303 266.516 242.361 266.763 242.816 C 266.874 243.025 261.793 246.017 261.824 246.074 C 262.055 246.503 266.737 242.612 266.912 242.938 C 267.022 243.141 262.166 245.73 262.353 246.074 C 262.602 246.535 267 242.857 267.142 243.12 C 267.306 243.422 262.72 246.02 262.752 246.074 C 262.831 246.222 267.132 242.921 267.315 243.258 C 267.492 243.586 263.148 245.959 263.21 246.074 C 263.377 246.384 267.433 243.267 267.515 243.419 C 267.67 243.706 263.393 246.013 263.427 246.074 C 263.547 246.3 267.561 243.407 267.61 243.495 C 267.757 243.769 263.795 245.753 263.97 246.074 C 264.003 246.134 267.719 243.452 267.844 243.685 C 268.043 244.049 264.082 245.91 264.172 246.074 C 264.365 246.429 267.802 243.514 267.933 243.755 C 268.014 243.906 264.508 246.003 264.547 246.074 C 264.64 246.245 267.96 243.635 268.096 243.886 C 268.19 244.059 264.922 245.865 265.034 246.074 C 265.128 246.251 268.183 243.828 268.306 244.056 C 268.391 244.212 265.156 245.864 265.271 246.074 C 265.411 246.335 268.249 243.843 268.409 244.14 C 268.467 244.246 265.559 245.82 265.696 246.074 C 265.746 246.167 268.454 244.033 268.593 244.289 C 268.666 244.423 266.049 245.981 266.101 246.074 C 266.224 246.303 268.752 244.401 268.767 244.43 C 268.851 244.586 266.283 245.967 266.341 246.074 C 266.46 246.295 268.817 244.417 268.869 244.513 C 268.96 244.683 266.452 245.832 266.583 246.074 C 266.712 246.313 268.883 244.431 268.976 244.601 C 269.07 244.778 266.966 245.882 267.071 246.074 C 267.092 246.115 269.084 244.585 269.184 244.771 C 269.199 244.8 267.258 245.96 267.32 246.074 C 267.402 246.226 269.224 244.737 269.292 244.86 C 269.378 245.018 267.553 245.896 267.649 246.074 C 267.723 246.213 269.367 244.852 269.433 244.975 C 269.464 245.034 267.801 245.977 267.853 246.074 C 267.945 246.246 269.437 244.893 269.519 245.047 C 269.553 245.109 268.149 245.967 268.207 246.074 C 268.275 246.202 269.598 245.035 269.673 245.172 C 269.692 245.208 268.607 246.035 268.629 246.074 C 268.638 246.094 269.799 245.222 269.852 245.321 C 269.873 245.36 269.025 246.059 269.034 246.075 C 269.054 246.113 270.006 245.428 270.026 245.464 C 270.047 245.504 269.261 246.013 269.294 246.075 C 269.326 246.135 270.11 245.51 270.137 245.557 C 270.172 245.622 269.483 246.011 269.519 246.075 C 269.546 246.129 270.211 245.595 270.233 245.635 C 270.256 245.68 269.921 246.038 269.941 246.075 C 269.948 246.087 270.394 245.751 270.413 245.786 C 270.416 245.79 270.471 246.065 270.477 246.075 C 270.482 246.083 270.634 245.961 270.639 245.976" style="fill: none; stroke: rgb(242, 235, 220); stroke-opacity: 1; stroke-miterlimit: 4; stroke-linecap: round; stroke-linejoin: round; stroke-width: 19.673px; stroke-dashoffset: 0px; clip-path: url(#clip-1);"/>
    <path d="M 331.428 240.796 L 331.428 244.5 C 331.428 244.5 315.381 244.881 282.826 251.373 C 279.655 254.043 274.571 257.42 267.12 259.959 C 225.852 262.617 203.556 249.764 203.556 249.764 C 202.56 248.116 202.315 247.005 202.315 247.005 L 282.184 247.005 C 282.184 247.005 319.913 239.489 331.428 240.796" style="fill: rgb(194, 201, 200); fill-opacity: 1; clip-path: url(#clip-2);" transform="matrix(1, 0.000054, -0.000054, 1, 0.013526, -0.014411)"/>
    <path d="M 267 259.853 C 260.673 262.011 252.638 263.563 242.619 263.563 C 215.357 263.563 206.295 254.393 203.434 249.658 C 203.434 249.658 225.731 262.511 267 259.853" style="fill: rgb(222, 227, 226); fill-opacity: 1; clip-path: url(#clip-3);" transform="matrix(1, 0.000054, -0.000054, 1, 0.013857, -0.012701)"/>
  </g>
  <line style="stroke: rgb(242, 235, 220); stroke-width: 2px; stroke-linecap: round; stroke-dasharray: 0.5, 3, 0.5, 3, 0.5, 3; stroke-dashoffset: 50px;" x1="207.377" y1="297.685" x2="210.473" y2="356.743" transform="matrix(0.992863, 0.11926, -0.11926, 0.992863, 40.514609, -22.581079)"/>
</svg>